<mxfile host="app.diagrams.net" modified="2023-02-06T02:01:00.291Z" agent="5.0 (Windows NT 10.0; Win64; x64) AppleWebKit/537.36 (KHTML, like Gecko) Chrome/109.0.0.0 Safari/537.36" etag="9Tq2o_99BHbGOoOIlNTE" version="20.8.16" type="github">
  <diagram name="Page-1" id="hKvbJVSf4uzDAvdGljz6">
    <mxGraphModel dx="2074" dy="1124" grid="1" gridSize="10" guides="1" tooltips="1" connect="1" arrows="1" fold="1" page="1" pageScale="1" pageWidth="827" pageHeight="1169" math="0" shadow="0">
      <root>
        <mxCell id="0" />
        <mxCell id="1" parent="0" />
        <mxCell id="G2V6ZnphLilGvFdsVbBa-2" value="" style="endArrow=none;html=1;rounded=0;" edge="1" parent="1">
          <mxGeometry width="50" height="50" relative="1" as="geometry">
            <mxPoint x="240" y="600" as="sourcePoint" />
            <mxPoint x="440" y="600" as="targetPoint" />
          </mxGeometry>
        </mxCell>
        <mxCell id="G2V6ZnphLilGvFdsVbBa-3" value="" style="endArrow=classic;html=1;rounded=0;" edge="1" parent="1">
          <mxGeometry width="50" height="50" relative="1" as="geometry">
            <mxPoint x="280" y="560" as="sourcePoint" />
            <mxPoint x="240" y="560" as="targetPoint" />
          </mxGeometry>
        </mxCell>
        <mxCell id="G2V6ZnphLilGvFdsVbBa-4" value="" style="endArrow=classic;html=1;rounded=0;" edge="1" parent="1">
          <mxGeometry width="50" height="50" relative="1" as="geometry">
            <mxPoint x="320" y="520" as="sourcePoint" />
            <mxPoint x="240" y="520" as="targetPoint" />
          </mxGeometry>
        </mxCell>
        <mxCell id="G2V6ZnphLilGvFdsVbBa-5" value="" style="endArrow=classic;html=1;rounded=0;" edge="1" parent="1">
          <mxGeometry width="50" height="50" relative="1" as="geometry">
            <mxPoint x="360" y="480" as="sourcePoint" />
            <mxPoint x="240" y="480" as="targetPoint" />
          </mxGeometry>
        </mxCell>
        <mxCell id="G2V6ZnphLilGvFdsVbBa-6" value="" style="endArrow=classic;html=1;rounded=0;" edge="1" parent="1">
          <mxGeometry width="50" height="50" relative="1" as="geometry">
            <mxPoint x="400" y="440" as="sourcePoint" />
            <mxPoint x="240" y="440" as="targetPoint" />
            <Array as="points" />
          </mxGeometry>
        </mxCell>
        <mxCell id="G2V6ZnphLilGvFdsVbBa-7" value="now" style="text;html=1;strokeColor=none;fillColor=none;align=center;verticalAlign=middle;whiteSpace=wrap;rounded=0;" vertex="1" parent="1">
          <mxGeometry x="210" y="600" width="60" height="30" as="geometry" />
        </mxCell>
        <mxCell id="G2V6ZnphLilGvFdsVbBa-8" value="" style="endArrow=classic;html=1;rounded=0;" edge="1" parent="1">
          <mxGeometry width="50" height="50" relative="1" as="geometry">
            <mxPoint x="440" y="400" as="sourcePoint" />
            <mxPoint x="240" y="400" as="targetPoint" />
            <Array as="points" />
          </mxGeometry>
        </mxCell>
        <mxCell id="G2V6ZnphLilGvFdsVbBa-9" value="第1年" style="text;html=1;strokeColor=none;fillColor=none;align=center;verticalAlign=middle;whiteSpace=wrap;rounded=0;" vertex="1" parent="1">
          <mxGeometry x="250" y="600" width="60" height="30" as="geometry" />
        </mxCell>
        <mxCell id="G2V6ZnphLilGvFdsVbBa-10" value="第2年" style="text;html=1;strokeColor=none;fillColor=none;align=center;verticalAlign=middle;whiteSpace=wrap;rounded=0;" vertex="1" parent="1">
          <mxGeometry x="290" y="600" width="60" height="30" as="geometry" />
        </mxCell>
        <mxCell id="G2V6ZnphLilGvFdsVbBa-11" value="第3年" style="text;html=1;strokeColor=none;fillColor=none;align=center;verticalAlign=middle;whiteSpace=wrap;rounded=0;" vertex="1" parent="1">
          <mxGeometry x="330" y="600" width="60" height="30" as="geometry" />
        </mxCell>
        <mxCell id="G2V6ZnphLilGvFdsVbBa-12" value="第4年" style="text;html=1;strokeColor=none;fillColor=none;align=center;verticalAlign=middle;whiteSpace=wrap;rounded=0;" vertex="1" parent="1">
          <mxGeometry x="370" y="600" width="60" height="30" as="geometry" />
        </mxCell>
        <mxCell id="G2V6ZnphLilGvFdsVbBa-13" value="第5年" style="text;html=1;strokeColor=none;fillColor=none;align=center;verticalAlign=middle;whiteSpace=wrap;rounded=0;" vertex="1" parent="1">
          <mxGeometry x="410" y="600" width="60" height="30" as="geometry" />
        </mxCell>
        <mxCell id="G2V6ZnphLilGvFdsVbBa-14" value="PV/现值" style="ellipse;whiteSpace=wrap;html=1;aspect=fixed;" vertex="1" parent="1">
          <mxGeometry x="180" y="450" width="50" height="50" as="geometry" />
        </mxCell>
        <mxCell id="G2V6ZnphLilGvFdsVbBa-16" value="" style="endArrow=classic;html=1;rounded=0;" edge="1" parent="1" target="G2V6ZnphLilGvFdsVbBa-9">
          <mxGeometry width="50" height="50" relative="1" as="geometry">
            <mxPoint x="280" y="370" as="sourcePoint" />
            <mxPoint x="350" y="290" as="targetPoint" />
          </mxGeometry>
        </mxCell>
        <mxCell id="G2V6ZnphLilGvFdsVbBa-18" value="" style="endArrow=classic;html=1;rounded=0;" edge="1" parent="1">
          <mxGeometry width="50" height="50" relative="1" as="geometry">
            <mxPoint x="319.5" y="370" as="sourcePoint" />
            <mxPoint x="319.5" y="600" as="targetPoint" />
          </mxGeometry>
        </mxCell>
        <mxCell id="G2V6ZnphLilGvFdsVbBa-19" value="" style="endArrow=classic;html=1;rounded=0;" edge="1" parent="1">
          <mxGeometry width="50" height="50" relative="1" as="geometry">
            <mxPoint x="359" y="370" as="sourcePoint" />
            <mxPoint x="359" y="600" as="targetPoint" />
          </mxGeometry>
        </mxCell>
        <mxCell id="G2V6ZnphLilGvFdsVbBa-20" value="" style="endArrow=classic;html=1;rounded=0;" edge="1" parent="1">
          <mxGeometry width="50" height="50" relative="1" as="geometry">
            <mxPoint x="399.5" y="370" as="sourcePoint" />
            <mxPoint x="399.5" y="600" as="targetPoint" />
          </mxGeometry>
        </mxCell>
        <mxCell id="G2V6ZnphLilGvFdsVbBa-21" value="" style="endArrow=classic;html=1;rounded=0;" edge="1" parent="1">
          <mxGeometry width="50" height="50" relative="1" as="geometry">
            <mxPoint x="439.5" y="370" as="sourcePoint" />
            <mxPoint x="439.5" y="600" as="targetPoint" />
          </mxGeometry>
        </mxCell>
        <mxCell id="G2V6ZnphLilGvFdsVbBa-23" value="收入&lt;br&gt;10" style="text;html=1;strokeColor=none;fillColor=none;align=center;verticalAlign=middle;whiteSpace=wrap;rounded=0;" vertex="1" parent="1">
          <mxGeometry x="370" y="333" width="60" height="30" as="geometry" />
        </mxCell>
        <mxCell id="G2V6ZnphLilGvFdsVbBa-24" value="收入&lt;br&gt;10" style="text;html=1;strokeColor=none;fillColor=none;align=center;verticalAlign=middle;whiteSpace=wrap;rounded=0;" vertex="1" parent="1">
          <mxGeometry x="330" y="333" width="60" height="30" as="geometry" />
        </mxCell>
        <mxCell id="G2V6ZnphLilGvFdsVbBa-25" value="收入&lt;br&gt;1010" style="text;html=1;strokeColor=none;fillColor=none;align=center;verticalAlign=middle;whiteSpace=wrap;rounded=0;" vertex="1" parent="1">
          <mxGeometry x="410" y="333" width="60" height="30" as="geometry" />
        </mxCell>
        <mxCell id="G2V6ZnphLilGvFdsVbBa-26" value="收入&lt;br&gt;10" style="text;html=1;strokeColor=none;fillColor=none;align=center;verticalAlign=middle;whiteSpace=wrap;rounded=0;" vertex="1" parent="1">
          <mxGeometry x="250" y="333" width="60" height="30" as="geometry" />
        </mxCell>
        <mxCell id="G2V6ZnphLilGvFdsVbBa-27" value="收入&lt;br&gt;10" style="text;html=1;strokeColor=none;fillColor=none;align=center;verticalAlign=middle;whiteSpace=wrap;rounded=0;" vertex="1" parent="1">
          <mxGeometry x="290" y="333" width="60" height="30" as="geometry" />
        </mxCell>
      </root>
    </mxGraphModel>
  </diagram>
</mxfile>
